mtllib materials.mtl
v 1.59 -0.1549965 -0.03999329
v 1.59 -0.1549965 0.04000664
v 1.59 3.457069E-06 0.04000664
v 1.59 3.457069E-06 -0.03999329
v -1.589999 -0.1549965 -0.03999329
v -1.589999 3.457069E-06 -0.03999329
v -1.589999 0.1550034 -0.03999329
v -1.589999 0.1550034 0.04000664
v -1.589999 -0.1549965 0.04000664
v -1.59 -0.1550045 -0.1599849
v 1.59 -0.154996 -0.1599932
v 1.59 0.1550034 -0.03999329
v 1.59 0.1550034 0.04000664
v 1.59 0.1950035 0.04000676
v 1.59 0.1950035 -0.03999329
v -1.59 0.1550071 0.1600099
v 1.59 0.1550033 0.1600069
v -1.589999 0.1950036 -0.03999317
v -1.589999 0.1950036 0.04000676
v 1.59 0.1550037 -0.1599933
v -1.589998 0.1550038 -0.16001
v -1.589999 -0.1950072 0.04000664
v -1.589999 -0.1950072 -0.03999352
v 1.59 -0.1549966 0.1600066
v -1.589999 -0.1550047 0.1600065
v 1.59 -0.1949964 -0.03999352
v 1.59 -0.1949964 0.04000652
v 1.59 -0.1949967 0.1600065
v -1.589999 -0.1950048 0.1600066
v -1.59 -0.1950043 -0.1599851
v 1.59 -0.1949959 -0.1599934
v -1.59 0.1950071 0.16001
v 1.59 0.1950033 0.1600069
v 1.59 0.1950035 -0.1599933
v -1.589998 0.1950036 -0.1600098
vn 1 0 0
vn 0 0 0
vn 9.371136E-09 1 -6.654711E-05
vn 1 2.816318E-06 3.725288E-07
vn 0 0 -1
vn 0 0 1
vn 0 0 -1
vn 1 0 0
vn 9.371442E-09 -1 3.086007E-05
vn -1 6.891593E-08 0
vn -3.426615E-15 -1 -3.148745E-06
vn 0 1 0
vn -1 -5.183149E-06 0
vn 2.707026E-13 1 -5.083689E-06
vn 1 4.626839E-06 3.725286E-07
vn 0 -1 0
vn 1 2.940493E-06 -1.98682E-06
vn 3.411336E-06 -1 1.982186E-05
vn -1 -3.871834E-06 1.480299E-12
vn 5.551185E-08 -3.228603E-06 1
vn -1 -4.013392E-06 3.973636E-06
vn 0 -1 -1.280385E-07
vn 1 5.13099E-06 -6.953872E-06
vn -2.935354E-08 5.712146E-06 -1
vn -1 1.840289E-06 1.490117E-06
vn 0 1 3.05556E-06
vn 1 1.791865E-06 2.775549E-12
vn 7.200019E-10 -2.048907E-06 1
vn 1 3.578769E-06 9.934103E-07
vn -6.579107E-13 1 -4.129281E-06
vn -1 8.443633E-08 -7.947291E-06
vn -8.145621E-08 1.676378E-06 -1
vt 0.1548419 0.04301161
vt 0.1613517 0.03836171
vt 0.1703609 0.05097459
vt 0.1638511 0.05562449
vt 0 0
vt 0 0
vt 0 0
vt 0 0
vt 0 0
vt -0.1058867 -0.003833909
vt 0.001059488 -0.303311
vt 0.01235976 -0.2992756
vt -0.09458562 0.0002017704
vt 0.1728604 0.06823672
vt 0.1793702 0.06358681
vt 0.1816952 0.06684174
vt 0.1751854 0.07149166
vt -0.09749256 0.08452337
vt -0.1113562 0.09145518
vt -0.2535701 -0.1929726
vt -0.2397065 -0.1999045
vt 0.09749256 0.08452337
vt 0.2397065 -0.1999045
vt 0.2674337 -0.1860408
vt 0.1252198 0.09838699
vt 0.1113562 0.09145518
vt -0.1113562 0.09145518
vt -0.1252198 0.09838699
vt -0.2674337 -0.1860408
vt -0.2535701 -0.1929726
vt 0.1703609 0.05097459
vt 0.1793701 0.06358745
vt 0.1728602 0.06823735
vt 0.1638511 0.05562449
vt 0.1134173 -0.006524988
vt 0.00646638 -0.3060004
vt 0.01776763 -0.3100364
vt 0.1247182 -0.01056088
vt -0.1793701 0.06358744
vt -0.1728602 0.06823735
vt -0.1751852 0.07149229
vt -0.1816951 0.06684239
vt -0.001077156 -0.303308
vt 0.1058782 -0.003834218
vt 0.09457733 0.0002018467
vt -0.01237956 -0.2992712
vt -0.1058787 -0.003834238
vt -0.1134126 -0.006524936
vt -0.006457675 -0.3059988
vt 0.001076253 -0.3033082
vt -0.1548429 0.04301207
vt -0.1613528 0.03836213
vt -0.1590272 0.03510634
vt -0.1525173 0.03975629
vt -0.006458946 -0.305999
vt -0.1134132 -0.006524881
vt -0.1247142 -0.01056089
vt -0.01775985 -0.310035
vt 0.1613518 0.03836081
vt 0.154842 0.04301074
vt 0.152517 0.03975584
vt 0.1590268 0.03510591
vt 0.1058787 -0.003834207
vt -0.001076287 -0.3033081
vt 0.006457664 -0.3059988
vt 0.1134126 -0.006524906
vt 0.1613517 0.03836157
vt 0.1590268 0.03510666
vt 0.1687915 0.02813177
vt 0.1711165 0.0313867
vt 0.1134151 -0.006524269
vt 0.006462905 -0.3059992
vt 0.01776385 -0.3100351
vt 0.124716 -0.0105602
vt -0.1590269 0.03510623
vt -0.1613525 0.03836203
vt -0.1711168 0.03138647
vt -0.1687918 0.02813153
vt 0.2397059 -0.1999049
vt 0.09749297 0.08452345
vt 0.09391525 0.0827346
vt 0.2361282 -0.2016937
vt -0.1548415 0.04301344
vt -0.1525159 0.03975765
vt -0.142752 0.04673223
vt -0.1450769 0.04998715
vt -0.001076325 -0.3033081
vt 0.1058787 -0.00383421
vt 0.09457777 0.0002018068
vt -0.01237646 -0.2992724
vt 0.1525168 0.03975711
vt 0.1548418 0.04301203
vt 0.1450769 0.04998688
vt 0.142752 0.04673196
vt -0.09749319 0.08452343
vt -0.2397059 -0.1999051
vt -0.2361282 -0.2016939
vt -0.09391548 0.08273461
vt -0.1793692 0.06358794
vt -0.1816942 0.06684289
vt -0.1914594 0.05986816
vt -0.1891345 0.05661323
vt -0.00645679 -0.3059987
vt -0.1134122 -0.00652493
vt -0.1247131 -0.01056098
vt -0.01775798 -0.3100348
vt 0.1816951 0.06684203
vt 0.1793702 0.06358709
vt 0.189135 0.05661219
vt 0.1914599 0.05986712
vt 0.1252201 0.09838702
vt 0.2674341 -0.1860408
vt 0.2710119 -0.1842519
vt 0.1287978 0.1001759
vt 0.1728605 0.06823647
vt 0.1751854 0.0714914
vt 0.1654207 0.0784663
vt 0.1630957 0.07521139
vt -0.1058793 -0.003834269
vt 0.001075085 -0.3033084
vt 0.0123775 -0.2992716
vt -0.09457842 0.0002017417
vt -0.1751878 0.07148913
vt -0.1728628 0.06823421
vt -0.1630967 0.07521017
vt -0.1654217 0.07846505
vt -0.2674337 -0.1860407
vt -0.12522 0.09838702
vt -0.1287977 0.1001758
vt -0.2710114 -0.1842519
o group797547240
g mesh797547240
usemtl mat21
f 4/4/1 3/3/1 2/2/1 1/1/1
f 9/9/2 8/8/2 7/7/2 6/6/2 5/5/2
f 11/13/3 10/12/3 5/11/3 1/10/3
f 15/17/4 14/16/4 13/15/4 12/14/4
f 5/21/5 6/20/5 4/19/5 1/18/5
f 3/26/6 13/25/6 8/24/6 9/23/6 2/22/6
f 6/30/7 7/29/7 12/28/7 4/27/7
f 4/34/8 12/33/8 13/32/8 3/31/8
f 17/38/9 16/37/9 8/36/9 13/35/9
f 19/42/10 18/41/10 7/40/10 8/39/10
f 21/46/11 20/45/11 12/44/11 7/43/11
f 18/50/12 19/49/12 14/48/12 15/47/12
f 23/54/13 22/53/13 9/52/13 5/51/13
f 25/58/14 24/57/14 2/56/14 9/55/14
f 27/62/15 26/61/15 1/60/15 2/59/15
f 27/66/16 22/65/16 23/64/16 26/63/16
f 24/70/17 28/69/17 27/68/17 2/67/17
f 28/74/18 29/73/18 22/72/18 27/71/18
f 29/78/19 25/77/19 9/76/19 22/75/19
f 29/82/20 28/81/20 24/80/20 25/79/20
f 10/86/21 30/85/21 23/84/21 5/83/21
f 30/90/22 31/89/22 26/88/22 23/87/22
f 31/94/23 11/93/23 1/92/23 26/91/23
f 31/98/24 30/97/24 10/96/24 11/95/24
f 16/102/25 32/101/25 19/100/25 8/99/25
f 32/106/26 33/105/26 14/104/26 19/103/26
f 33/110/27 17/109/27 13/108/27 14/107/27
f 33/114/28 32/113/28 16/112/28 17/111/28
f 20/118/29 34/117/29 15/116/29 12/115/29
f 34/122/30 35/121/30 18/120/30 15/119/30
f 35/126/31 21/125/31 7/124/31 18/123/31
f 35/130/32 34/129/32 20/128/32 21/127/32
