mtllib materials.mtl
v 0.1606178 -0.05181813 -0.7768182
v 0.1552588 -0.07181811 -0.7768182
v 0.1552588 -0.07181811 0.773182
v 0.1606178 -0.05181813 0.773182
v 0.1406177 -0.08645916 -0.7768182
v 0.1406177 -0.08645916 0.773182
v 0.1206177 -0.09181809 -0.7768182
v 0.1206177 -0.09181809 0.773182
v 0.1006178 -0.08645916 -0.7768182
v 0.1006178 -0.08645916 0.773182
v 0.08597672 -0.07181811 -0.7768182
v 0.08597672 -0.07181811 0.773182
v 0.08061773 -0.05181813 -0.7768182
v 0.08061773 -0.05181813 0.773182
v 0.08597672 -0.03181815 -0.7768182
v 0.08597672 -0.03181815 0.773182
v 0.1006178 -0.0171771 -0.7768182
v 0.1006178 -0.0171771 0.773182
v 0.1206177 -0.01181817 -0.7768182
v 0.1206177 -0.01181817 0.773182
v 0.1406177 -0.0171771 -0.7768182
v 0.1406177 -0.0171771 0.773182
v 0.1552588 -0.03181815 -0.7768182
v 0.1552588 -0.03181815 0.773182
v 0.08061773 -0.05681777 -0.7718183
v 0.07525873 -0.07681775 -0.7718183
v 0.07525873 -0.07681775 0.7781817
v 0.08061773 -0.05681777 0.7781817
v 0.06061769 -0.0914588 -0.7718183
v 0.06061769 -0.0914588 0.7781817
v 0.0406177 -0.09681773 -0.7718183
v 0.0406177 -0.09681773 0.7781817
v 0.02061772 -0.0914588 -0.7718183
v 0.02061772 -0.0914588 0.7781817
v 0.005976677 -0.07681775 -0.7718183
v 0.005976677 -0.07681775 0.7781817
v 0.0006176829 -0.05681777 -0.7718183
v 0.0006176829 -0.05681777 0.7781817
v 0.005976677 -0.03681779 -0.7718183
v 0.005976677 -0.03681779 0.7781817
v 0.02061772 -0.02217674 -0.7718183
v 0.02061772 -0.02217674 0.7781817
v 0.0406177 -0.01681781 -0.7718183
v 0.0406177 -0.01681781 0.7781817
v 0.06061769 -0.02217674 -0.7718183
v 0.06061769 -0.02217674 0.7781817
v 0.07525873 -0.03681779 -0.7718183
v 0.07525873 -0.03681779 0.7781817
v 0.0006176829 -0.05681777 -0.7818183
v -0.004741311 -0.07681775 -0.7818183
v -0.004741311 -0.07681775 0.7681817
v 0.0006176829 -0.05681777 0.7681817
v -0.0193823 -0.0914588 -0.7818183
v -0.0193823 -0.0914588 0.7681817
v -0.03938231 -0.09681773 -0.7818183
v -0.03938231 -0.09681773 0.7681817
v -0.05938232 -0.0914588 -0.7818183
v -0.05938232 -0.0914588 0.7681817
v -0.07402334 -0.07681775 -0.7818183
v -0.07402334 -0.07681775 0.7681817
v -0.0793823 -0.05681777 -0.7818183
v -0.0793823 -0.05681777 0.7681817
v -0.07402331 -0.03681779 -0.7818183
v -0.07402331 -0.03681779 0.7681817
v -0.05938229 -0.02217674 -0.7818183
v -0.05938229 -0.02217674 0.7681817
v -0.03938231 -0.01681781 -0.7818183
v -0.03938231 -0.01681781 0.7681817
v -0.0193823 -0.02217674 -0.7818183
v -0.0193823 -0.02217674 0.7681817
v -0.004741251 -0.03681779 -0.7818183
v -0.004741251 -0.03681779 0.7681817
v -0.0793823 -0.05681825 -0.7818183
v -0.08474129 -0.07681823 -0.7818183
v -0.08474129 -0.07681823 0.7681817
v -0.0793823 -0.05681825 0.7681817
v -0.09938231 -0.09145927 -0.7818183
v -0.09938231 -0.09145927 0.7681817
v -0.1193823 -0.09681821 -0.7818183
v -0.1193823 -0.09681821 0.7681817
v -0.1393823 -0.09145927 -0.7818183
v -0.1393823 -0.09145927 0.7681817
v -0.1540233 -0.07681823 -0.7818183
v -0.1540233 -0.07681823 0.7681817
v -0.1593823 -0.05681825 -0.7818183
v -0.1593823 -0.05681825 0.7681817
v -0.1540233 -0.03681827 -0.7818183
v -0.1540233 -0.03681827 0.7681817
v -0.1393823 -0.02217722 -0.7818183
v -0.1393823 -0.02217722 0.7681817
v -0.1193823 -0.01681828 -0.7818183
v -0.1193823 -0.01681828 0.7681817
v -0.09938228 -0.02217722 -0.7818183
v -0.09938228 -0.02217722 0.7681817
v -0.08474126 -0.03681827 -0.7818183
v -0.08474126 -0.03681827 0.7681817
v -0.03938231 0.01318192 -0.7718183
v -0.04474127 -0.006818056 -0.7718183
v -0.04474127 -0.006818056 0.7781817
v -0.03938231 0.01318192 0.7781817
v -0.05938232 -0.0214591 -0.7718183
v -0.05938232 -0.0214591 0.7781817
v -0.0793823 -0.02681804 -0.7718183
v -0.0793823 -0.02681804 0.7781817
v -0.09938231 -0.0214591 -0.7718183
v -0.09938231 -0.0214591 0.7781817
v -0.1140233 -0.006818056 -0.7718183
v -0.1140233 -0.006818056 0.7781817
v -0.1193823 0.01318192 -0.7718183
v -0.1193823 0.01318192 0.7781817
v -0.1140233 0.03318191 -0.7718183
v -0.1140233 0.03318191 0.7781817
v -0.09938228 0.04782295 -0.7718183
v -0.09938228 0.04782295 0.7781817
v -0.0793823 0.05318189 -0.7718183
v -0.0793823 0.05318189 0.7781817
v -0.05938229 0.04782295 -0.7718183
v -0.05938229 0.04782295 0.7781817
v -0.04474127 0.03318191 -0.7718183
v -0.04474127 0.03318191 0.7781817
v 0.04061776 0.01318192 -0.7718183
v 0.03525877 -0.006818056 -0.7718183
v 0.03525877 -0.006818056 0.7781819
v 0.04061776 0.01318192 0.7781819
v 0.02061772 -0.0214591 -0.7718183
v 0.02061772 -0.0214591 0.7781819
v 0.0006177425 -0.02681804 -0.7718183
v 0.0006177425 -0.02681804 0.7781819
v -0.01938224 -0.0214591 -0.7718183
v -0.01938224 -0.0214591 0.7781819
v -0.03402328 -0.006818056 -0.7718183
v -0.03402328 -0.006818056 0.7781819
v -0.03938228 0.01318192 -0.7718183
v -0.03938228 0.01318192 0.7781819
v -0.03402328 0.03318191 -0.7718183
v -0.03402328 0.03318191 0.7781819
v -0.01938224 0.04782295 -0.7718183
v -0.01938224 0.04782295 0.7781819
v 0.0006177425 0.05318189 -0.7718183
v 0.0006177425 0.05318189 0.7781819
v 0.02061772 0.04782295 -0.7718183
v 0.02061772 0.04782295 0.7781819
v 0.03525877 0.03318191 -0.7718183
v 0.03525877 0.03318191 0.7781819
v 0.1206177 0.01318192 -0.7718183
v 0.1152587 -0.006818056 -0.7718183
v 0.1152587 -0.006818056 0.7781819
v 0.1206177 0.01318192 0.7781819
v 0.1006176 -0.0214591 -0.7718183
v 0.1006176 -0.0214591 0.7781819
v 0.08061767 -0.02681804 -0.7718183
v 0.08061767 -0.02681804 0.7781819
v 0.06061769 -0.0214591 -0.7718183
v 0.06061769 -0.0214591 0.7781819
v 0.04597664 -0.006818056 -0.7718183
v 0.04597664 -0.006818056 0.7781819
v 0.04061764 0.01318192 -0.7718183
v 0.04061764 0.01318192 0.7781819
v 0.04597664 0.03318191 -0.7718183
v 0.04597664 0.03318191 0.7781819
v 0.06061769 0.04782295 -0.7718183
v 0.06061769 0.04782295 0.7781819
v 0.08061767 0.05318189 -0.7718183
v 0.08061767 0.05318189 0.7781819
v 0.1006176 0.04782295 -0.7718183
v 0.1006176 0.04782295 0.7781819
v 0.1152587 0.03318191 -0.7718183
v 0.1152587 0.03318191 0.7781819
v 0.08061773 0.0831821 -0.7618183
v 0.07525873 0.06318212 -0.7618183
v 0.07525873 0.06318212 0.7881817
v 0.08061773 0.0831821 0.7881817
v 0.06061769 0.04854107 -0.7618183
v 0.06061769 0.04854107 0.7881817
v 0.0406177 0.04318213 -0.7618183
v 0.0406177 0.04318213 0.7881817
v 0.02061772 0.04854107 -0.7618183
v 0.02061772 0.04854107 0.7881817
v 0.005976677 0.06318212 -0.7618183
v 0.005976677 0.06318212 0.7881817
v 0.0006176829 0.0831821 -0.7618183
v 0.0006176829 0.0831821 0.7881817
v 0.005976677 0.1031821 -0.7618183
v 0.005976677 0.1031821 0.7881817
v 0.02061772 0.1178231 -0.7618183
v 0.02061772 0.1178231 0.7881817
v 0.0406177 0.1231821 -0.7618183
v 0.0406177 0.1231821 0.7881817
v 0.06061769 0.1178231 -0.7618183
v 0.06061769 0.1178231 0.7881817
v 0.07525873 0.1031821 -0.7618183
v 0.07525873 0.1031821 0.7881817
v 0.0006176829 0.0831821 -0.7618183
v -0.004741311 0.06318212 -0.7618183
v -0.004741311 0.06318212 0.7881819
v 0.0006176829 0.0831821 0.7881819
v -0.0193823 0.04854107 -0.7618183
v -0.0193823 0.04854107 0.7881819
v -0.03938231 0.04318213 -0.7618183
v -0.03938231 0.04318213 0.7881819
v -0.05938232 0.04854107 -0.7618183
v -0.05938232 0.04854107 0.7881819
v -0.07402334 0.06318212 -0.7618183
v -0.07402334 0.06318212 0.7881819
v -0.0793823 0.0831821 -0.7618183
v -0.0793823 0.0831821 0.7881819
v -0.07402331 0.1031821 -0.7618183
v -0.07402331 0.1031821 0.7881819
v -0.05938229 0.1178231 -0.7618183
v -0.05938229 0.1178231 0.7881819
v -0.03938231 0.1231821 -0.7618183
v -0.03938231 0.1231821 0.7881819
v -0.0193823 0.1178231 -0.7618183
v -0.0193823 0.1178231 0.7881819
v -0.004741251 0.1031821 -0.7618183
v -0.004741251 0.1031821 0.7881819
v 0.0006176829 0.1581819 0.6131816
v -0.08938238 0.1280856 0.6131816
v -0.08938238 0.1280856 0.5331815
v 0.0006176829 0.1581819 0.5331815
v -0.1593825 -0.00181818 0.6131816
v -0.1593825 -0.00181818 0.5331815
v -0.1725875 -0.06681824 0.6131816
v -0.1725875 -0.06681824 0.5331817
v -0.09938234 -0.121722 0.6131816
v -0.09938234 -0.121722 0.5331817
v 0.0006176829 -0.1418183 0.6131817
v 0.0006176829 -0.1418183 0.5331817
v 0.1006178 -0.121722 0.6131817
v 0.1006178 -0.121722 0.5331817
v 0.1738228 -0.06681824 0.6131817
v 0.1738228 -0.06681824 0.5331817
v 0.1706178 -0.01181817 0.6131817
v 0.1706178 -0.01181817 0.5331817
v 0.08061779 0.1280856 0.6131816
v 0.08061779 0.1280856 0.5331817
v -0.006177247 0.1581819 -0.5568181
v -0.09617731 0.1280856 -0.5568181
v -0.09617731 0.1280856 -0.6368183
v -0.006177247 0.1581819 -0.6368181
v -0.1661774 -0.00181818 -0.5568181
v -0.1661774 -0.00181818 -0.6368183
v -0.1793824 -0.06681824 -0.5568181
v -0.1793824 -0.06681824 -0.6368181
v -0.1061773 -0.121722 -0.5568181
v -0.1061773 -0.121722 -0.6368181
v -0.006177247 -0.1418183 -0.5568181
v -0.006177247 -0.1418183 -0.6368181
v 0.09382284 -0.121722 -0.5568181
v 0.09382284 -0.121722 -0.6368181
v 0.1670279 -0.06681824 -0.5568181
v 0.1670279 -0.06681824 -0.6368181
v 0.1638229 -0.01181817 -0.5568179
v 0.1638229 -0.01181817 -0.6368181
v 0.07382286 0.1280856 -0.5568181
v 0.07382286 0.1280856 -0.6368181
vn 1 -1.788139E-07 -5.960464E-08
vn 0.8660253 -0.5000002 -5.161914E-08
vn 0.4999998 -0.8660255 -2.980232E-08
vn -2.8213E-07 -1 2.605402E-15
vn -0.5000002 -0.8660253 2.980233E-08
vn -0.8660255 -0.4999999 5.161914E-08
vn -1 2.662367E-07 5.960464E-08
vn -0.8660252 0.5000004 5.161913E-08
vn -0.4999997 0.8660255 2.980232E-08
vn 2.503434E-07 1 -7.107783E-16
vn 0.5000001 0.8660254 -2.980232E-08
vn 0.8660257 0.4999996 -5.161915E-08
vn 0 -5.960464E-08 -1
vn 0 5.960464E-08 1
vn 1 -1.788139E-07 -5.960464E-08
vn 0.8660253 -0.5000002 -5.161914E-08
vn 0.4999998 -0.8660255 -2.980232E-08
vn -2.8213E-07 -1 2.605402E-15
vn -0.5000002 -0.8660253 2.980233E-08
vn -0.8660255 -0.4999999 5.161914E-08
vn -1 2.662367E-07 5.960464E-08
vn -0.8660252 0.5000004 5.161913E-08
vn -0.4999997 0.8660255 2.980232E-08
vn 2.503434E-07 1 -7.107783E-16
vn 0.5000001 0.8660254 -2.980232E-08
vn 0.8660257 0.4999996 -5.161915E-08
vn 0 -5.960464E-08 -1
vn 0 5.960464E-08 1
vn 1 -1.788139E-07 -5.960464E-08
vn 0.8660253 -0.5000002 -5.161914E-08
vn 0.4999998 -0.8660255 -2.980232E-08
vn -2.8213E-07 -1 2.605402E-15
vn -0.5000002 -0.8660253 2.980233E-08
vn -0.8660255 -0.4999999 5.161914E-08
vn -1 2.662367E-07 5.960464E-08
vn -0.8660252 0.5000004 5.161913E-08
vn -0.4999997 0.8660255 2.980232E-08
vn 2.503434E-07 1 -7.107783E-16
vn 0.5000001 0.8660254 -2.980232E-08
vn 0.8660257 0.4999996 -5.161915E-08
vn 0 -5.960464E-08 -1
vn 0 5.960464E-08 1
vn 1 -1.788139E-07 -5.960464E-08
vn 0.8660253 -0.5000002 -5.161914E-08
vn 0.4999998 -0.8660255 -2.980232E-08
vn -2.8213E-07 -1 2.605402E-15
vn -0.5000002 -0.8660253 2.980233E-08
vn -0.8660255 -0.4999999 5.161914E-08
vn -1 2.662367E-07 5.960464E-08
vn -0.8660252 0.5000004 5.161913E-08
vn -0.4999997 0.8660255 2.980232E-08
vn 2.503434E-07 1 -7.107783E-16
vn 0.5000001 0.8660254 -2.980232E-08
vn 0.8660257 0.4999996 -5.161915E-08
vn 0 -5.960464E-08 -1
vn 0 5.960464E-08 1
vn 1 -1.788139E-07 -5.960464E-08
vn 0.8660253 -0.5000002 -5.161914E-08
vn 0.4999998 -0.8660255 -2.980232E-08
vn -2.8213E-07 -1 2.605402E-15
vn -0.5000002 -0.8660253 2.980233E-08
vn -0.8660255 -0.4999999 5.161914E-08
vn -1 2.662367E-07 5.960464E-08
vn -0.8660252 0.5000004 5.161913E-08
vn -0.4999997 0.8660255 2.980232E-08
vn 2.503434E-07 1 -7.107783E-16
vn 0.5000001 0.8660254 -2.980232E-08
vn 0.8660257 0.4999996 -5.161915E-08
vn 0 -5.960464E-08 -1
vn 0 5.960464E-08 1
vn 1 -1.788139E-07 -5.960464E-08
vn 0.8660253 -0.5000002 -5.161914E-08
vn 0.4999998 -0.8660255 -2.980232E-08
vn -2.8213E-07 -1 2.605402E-15
vn -0.5000002 -0.8660253 2.980233E-08
vn -0.8660255 -0.4999999 5.161914E-08
vn -1 2.662367E-07 5.960464E-08
vn -0.8660252 0.5000004 5.161913E-08
vn -0.4999997 0.8660255 2.980232E-08
vn 2.503434E-07 1 -7.107783E-16
vn 0.5000001 0.8660254 -2.980232E-08
vn 0.8660257 0.4999996 -5.161915E-08
vn 0 -5.960464E-08 -1
vn 0 5.960464E-08 1
vn 1 -1.788139E-07 -5.960464E-08
vn 0.8660253 -0.5000002 -5.161914E-08
vn 0.4999998 -0.8660255 -2.980232E-08
vn -2.8213E-07 -1 2.605402E-15
vn -0.5000002 -0.8660253 2.980233E-08
vn -0.8660255 -0.4999999 5.161914E-08
vn -1 2.662367E-07 5.960464E-08
vn -0.8660252 0.5000004 5.161913E-08
vn -0.4999997 0.8660255 2.980232E-08
vn 2.503434E-07 1 -7.107783E-16
vn 0.5000001 0.8660254 -2.980232E-08
vn 0.8660257 0.4999996 -5.161915E-08
vn 0 -5.960464E-08 -1
vn 0 5.960464E-08 1
vn 1 -1.788139E-07 -5.960464E-08
vn 0.8660253 -0.5000002 -5.161914E-08
vn 0.4999998 -0.8660255 -2.980232E-08
vn -2.8213E-07 -1 2.605402E-15
vn -0.5000002 -0.8660253 2.980233E-08
vn -0.8660255 -0.4999999 5.161914E-08
vn -1 2.662367E-07 5.960464E-08
vn -0.8660252 0.5000004 5.161913E-08
vn -0.4999997 0.8660255 2.980232E-08
vn 2.503434E-07 1 -7.107783E-16
vn 0.5000001 0.8660254 -2.980232E-08
vn 0.8660257 0.4999996 -5.161915E-08
vn 0 -5.960464E-08 -1
vn 0 5.960464E-08 1
vn 1 -1.788139E-07 -5.960464E-08
vn 0.8660253 -0.5000002 -5.161914E-08
vn 0.4999998 -0.8660255 -2.980232E-08
vn -2.8213E-07 -1 2.605402E-15
vn -0.5000002 -0.8660253 2.980233E-08
vn -0.8660255 -0.4999999 5.161914E-08
vn -1 2.662367E-07 5.960464E-08
vn -0.8660252 0.5000004 5.161913E-08
vn -0.4999997 0.8660255 2.980232E-08
vn 2.503434E-07 1 -7.107783E-16
vn 0.5000001 0.8660254 -2.980232E-08
vn 0.8660257 0.4999996 -5.161915E-08
vn 0 -5.960464E-08 -1
vn 0 5.960464E-08 1
vn -0.3171397 0.948379 8.996155E-08
vn -0.8803247 0.4743721 7.280585E-09
vn -0.979982 0.199087 -2.359441E-07
vn -0.8660256 -0.5000001 -1.61057E-08
vn -0.5000002 -0.8660255 5.952687E-08
vn 8.74228E-08 -1 1.192093E-07
vn 0.5000004 -0.8660254 1.469497E-07
vn 0.9983068 0.05817327 -3.164443E-07
vn 0.8410093 0.5410209 -7.064276E-08
vn 0.3521096 0.935959 -6.72897E-08
vn -8.742279E-08 -1.192093E-07 1
vn 8.742279E-08 1.00211E-07 -1
vn -0.3171397 0.948379 8.996155E-08
vn -0.8803247 0.4743721 7.280585E-09
vn -0.979982 0.199087 -2.359441E-07
vn -0.8660256 -0.5000001 -1.61057E-08
vn -0.5000002 -0.8660255 5.952687E-08
vn 8.74228E-08 -1 1.192093E-07
vn 0.5000004 -0.8660254 1.469497E-07
vn 0.9983068 0.05817327 -3.164443E-07
vn 0.8410093 0.5410209 -7.064276E-08
vn 0.3521096 0.935959 -6.72897E-08
vn -8.742279E-08 -1.192093E-07 1
vn 8.742279E-08 1.00211E-07 -1
usemtl mat15
f 4//1 3//1 2//1 1//1
f 3//2 6//2 5//2 2//2
f 6//3 8//3 7//3 5//3
f 8//4 10//4 9//4 7//4
f 10//5 12//5 11//5 9//5
f 12//6 14//6 13//6 11//6
f 14//7 16//7 15//7 13//7
f 16//8 18//8 17//8 15//8
f 18//9 20//9 19//9 17//9
f 20//10 22//10 21//10 19//10
f 22//11 24//11 23//11 21//11
f 24//12 4//12 1//12 23//12
f 1//13 2//13 5//13 7//13 9//13 11//13 13//13 15//13 17//13 19//13 21//13 23//13
f 24//14 22//14 20//14 18//14 16//14 14//14 12//14 10//14 8//14 6//14 3//14 4//14
f 28//15 27//15 26//15 25//15
f 27//16 30//16 29//16 26//16
f 30//17 32//17 31//17 29//17
f 32//18 34//18 33//18 31//18
f 34//19 36//19 35//19 33//19
f 36//20 38//20 37//20 35//20
f 38//21 40//21 39//21 37//21
f 40//22 42//22 41//22 39//22
f 42//23 44//23 43//23 41//23
f 44//24 46//24 45//24 43//24
f 46//25 48//25 47//25 45//25
f 48//26 28//26 25//26 47//26
f 25//27 26//27 29//27 31//27 33//27 35//27 37//27 39//27 41//27 43//27 45//27 47//27
f 48//28 46//28 44//28 42//28 40//28 38//28 36//28 34//28 32//28 30//28 27//28 28//28
f 52//29 51//29 50//29 49//29
f 51//30 54//30 53//30 50//30
f 54//31 56//31 55//31 53//31
f 56//32 58//32 57//32 55//32
f 58//33 60//33 59//33 57//33
f 60//34 62//34 61//34 59//34
f 62//35 64//35 63//35 61//35
f 64//36 66//36 65//36 63//36
f 66//37 68//37 67//37 65//37
f 68//38 70//38 69//38 67//38
f 70//39 72//39 71//39 69//39
f 72//40 52//40 49//40 71//40
f 49//41 50//41 53//41 55//41 57//41 59//41 61//41 63//41 65//41 67//41 69//41 71//41
f 72//42 70//42 68//42 66//42 64//42 62//42 60//42 58//42 56//42 54//42 51//42 52//42
f 76//43 75//43 74//43 73//43
f 75//44 78//44 77//44 74//44
f 78//45 80//45 79//45 77//45
f 80//46 82//46 81//46 79//46
f 82//47 84//47 83//47 81//47
f 84//48 86//48 85//48 83//48
f 86//49 88//49 87//49 85//49
f 88//50 90//50 89//50 87//50
f 90//51 92//51 91//51 89//51
f 92//52 94//52 93//52 91//52
f 94//53 96//53 95//53 93//53
f 96//54 76//54 73//54 95//54
f 73//55 74//55 77//55 79//55 81//55 83//55 85//55 87//55 89//55 91//55 93//55 95//55
f 96//56 94//56 92//56 90//56 88//56 86//56 84//56 82//56 80//56 78//56 75//56 76//56
f 100//57 99//57 98//57 97//57
f 99//58 102//58 101//58 98//58
f 102//59 104//59 103//59 101//59
f 104//60 106//60 105//60 103//60
f 106//61 108//61 107//61 105//61
f 108//62 110//62 109//62 107//62
f 110//63 112//63 111//63 109//63
f 112//64 114//64 113//64 111//64
f 114//65 116//65 115//65 113//65
f 116//66 118//66 117//66 115//66
f 118//67 120//67 119//67 117//67
f 120//68 100//68 97//68 119//68
f 97//69 98//69 101//69 103//69 105//69 107//69 109//69 111//69 113//69 115//69 117//69 119//69
f 120//70 118//70 116//70 114//70 112//70 110//70 108//70 106//70 104//70 102//70 99//70 100//70
f 124//71 123//71 122//71 121//71
f 123//72 126//72 125//72 122//72
f 126//73 128//73 127//73 125//73
f 128//74 130//74 129//74 127//74
f 130//75 132//75 131//75 129//75
f 132//76 134//76 133//76 131//76
f 134//77 136//77 135//77 133//77
f 136//78 138//78 137//78 135//78
f 138//79 140//79 139//79 137//79
f 140//80 142//80 141//80 139//80
f 142//81 144//81 143//81 141//81
f 144//82 124//82 121//82 143//82
f 121//83 122//83 125//83 127//83 129//83 131//83 133//83 135//83 137//83 139//83 141//83 143//83
f 144//84 142//84 140//84 138//84 136//84 134//84 132//84 130//84 128//84 126//84 123//84 124//84
f 148//85 147//85 146//85 145//85
f 147//86 150//86 149//86 146//86
f 150//87 152//87 151//87 149//87
f 152//88 154//88 153//88 151//88
f 154//89 156//89 155//89 153//89
f 156//90 158//90 157//90 155//90
f 158//91 160//91 159//91 157//91
f 160//92 162//92 161//92 159//92
f 162//93 164//93 163//93 161//93
f 164//94 166//94 165//94 163//94
f 166//95 168//95 167//95 165//95
f 168//96 148//96 145//96 167//96
f 145//97 146//97 149//97 151//97 153//97 155//97 157//97 159//97 161//97 163//97 165//97 167//97
f 168//98 166//98 164//98 162//98 160//98 158//98 156//98 154//98 152//98 150//98 147//98 148//98
f 172//99 171//99 170//99 169//99
f 171//100 174//100 173//100 170//100
f 174//101 176//101 175//101 173//101
f 176//102 178//102 177//102 175//102
f 178//103 180//103 179//103 177//103
f 180//104 182//104 181//104 179//104
f 182//105 184//105 183//105 181//105
f 184//106 186//106 185//106 183//106
f 186//107 188//107 187//107 185//107
f 188//108 190//108 189//108 187//108
f 190//109 192//109 191//109 189//109
f 192//110 172//110 169//110 191//110
f 169//111 170//111 173//111 175//111 177//111 179//111 181//111 183//111 185//111 187//111 189//111 191//111
f 192//112 190//112 188//112 186//112 184//112 182//112 180//112 178//112 176//112 174//112 171//112 172//112
f 196//113 195//113 194//113 193//113
f 195//114 198//114 197//114 194//114
f 198//115 200//115 199//115 197//115
f 200//116 202//116 201//116 199//116
f 202//117 204//117 203//117 201//117
f 204//118 206//118 205//118 203//118
f 206//119 208//119 207//119 205//119
f 208//120 210//120 209//120 207//120
f 210//121 212//121 211//121 209//121
f 212//122 214//122 213//122 211//122
f 214//123 216//123 215//123 213//123
f 216//124 196//124 193//124 215//124
f 193//125 194//125 197//125 199//125 201//125 203//125 205//125 207//125 209//125 211//125 213//125 215//125
f 216//126 214//126 212//126 210//126 208//126 206//126 204//126 202//126 200//126 198//126 195//126 196//126
usemtl mat17
f 220//127 219//127 218//127 217//127
f 219//128 222//128 221//128 218//128
f 222//129 224//129 223//129 221//129
f 224//130 226//130 225//130 223//130
f 226//131 228//131 227//131 225//131
f 228//132 230//132 229//132 227//132
f 230//133 232//133 231//133 229//133
f 232//134 234//134 233//134 231//134
f 234//135 236//135 235//135 233//135
f 236//136 220//136 217//136 235//136
f 217//137 218//137 221//137 223//137 225//137 227//137 229//137 231//137 233//137 235//137
f 236//138 234//138 232//138 230//138 228//138 226//138 224//138 222//138 219//138 220//138
f 240//139 239//139 238//139 237//139
f 239//140 242//140 241//140 238//140
f 242//141 244//141 243//141 241//141
f 244//142 246//142 245//142 243//142
f 246//143 248//143 247//143 245//143
f 248//144 250//144 249//144 247//144
f 250//145 252//145 251//145 249//145
f 252//146 254//146 253//146 251//146
f 254//147 256//147 255//147 253//147
f 256//148 240//148 237//148 255//148
f 237//149 238//149 241//149 243//149 245//149 247//149 249//149 251//149 253//149 255//149
f 256//150 254//150 252//150 250//150 248//150 246//150 244//150 242//150 239//150 240//150
