mtllib materials.mtl
v -0.03478944 0.0512048 0.03943865
v -0.02274847 0.05293846 -0.05981863
v -0.02273905 0.0629369 -0.05964287
v -0.03478003 0.06120324 0.03961441
v -0.01387638 0.003153682 -0.1096372
v 0.05701149 0.003153682 -0.1021449
v 0.04801565 0.05272114 -0.05123797
v -0.01913172 -0.08344889 -0.05991411
v 0.0517562 -0.08344889 -0.05242184
v -0.02964234 -0.08344889 0.03953201
v 0.04124552 -0.08344889 0.04702428
v -0.03489769 0.003153682 0.08925502
v 0.03599024 0.003153682 0.09674729
v 0.03597462 0.05098748 0.04801929
v -0.06507301 0.0009710789 -0.00953941
v 0.08151221 0.006006718 0.003989398
v 0.04802501 0.06271958 -0.05106221
v 0.03598398 0.06098592 0.04819505
v -0.02889562 0.07314014 -0.07079007
v -0.04346514 0.07104242 0.04931124
v 0.0567289 0.07287717 -0.06040746
v 0.04215932 0.07077944 0.05969383
v -0.0288862 0.08313859 -0.07061431
v -0.04345584 0.08104086 0.04948701
v 0.05673832 0.08287561 -0.0602317
v 0.04216868 0.08077788 0.05986954
v -0.01666832 0.08273268 -0.04817759
v -0.02622741 0.08135629 0.03062086
v 0.03950989 0.08256018 -0.04136556
v 0.0299508 0.08118379 0.03743288
v -0.01669651 0.05273736 -0.04870482
v -0.02625561 0.05136096 0.03009363
v 0.03948176 0.05256486 -0.0418928
v 0.02992266 0.05118847 0.03690563
v -0.02125347 0.03475618 0.05005537
v 0.0449332 0.03455615 -0.06081767
v 0.03502309 0.03475618 0.05600332
v -0.01119047 0.03291011 -0.06787826
v 0.00773555 0.001566768 0.0293833
v 0.001634181 0.01576197 0.01668416
v 0.0195567 0.01603603 0.01529872
v 0.01240724 0.00203681 0.02766423
v -0.004609227 0.01076746 -0.001648188
v 0.02656424 0.01084554 -0.002699986
v -0.004751205 -0.008422375 -0.007281378
v 0.0264222 -0.008344173 -0.008333161
v 0.001350164 -0.02261758 0.005417764
v 0.01927274 -0.0223434 0.004032359
v 0.007593632 -0.01762307 0.02375011
v 0.01226521 -0.01715291 0.02203105
v 0.007718325 -0.03170085 0.0280975
v 0.01175225 0.008091092 0.05736436
v 0.006762326 0.007808805 0.05751251
v 0.01271206 -0.03153682 0.02790768
vn -0.9927238 0.003051103 -0.1203747
vn 0.07970992 0.7167108 -0.6928002
vn 0.09102481 -0.4999999 -0.8612285
vn -5.878928E-07 -1 5.302109E-08
vn -0.09102508 -0.4999997 0.8612286
vn -0.07778845 0.7145767 0.6952189
vn -0.9310061 -0.2225871 0.2892798
vn 0.9590749 -0.1824994 -0.2164933
vn 0.1204098 0.01733516 -0.9925729
vn 0.9927238 -0.00304517 0.1203753
vn -0.1204097 -0.01733487 0.992573
vn -0.7953239 -0.5966839 -0.106903
vn 0.08236096 -0.7120714 -0.6972597
vn 0.794198 -0.6015658 0.08583791
vn -0.08372115 -0.7359847 0.6718016
vn -0.9927239 0.003045237 -0.1203749
vn 0.12041 0.01733489 -0.9925729
vn 0.9927238 -0.003047925 0.1203752
vn -0.1204096 -0.01733422 0.992573
vn 0.0009407834 0.9998451 0.01757807
vn 0.0009392785 0.9998451 0.0175759
vn 0.0009406087 0.9998451 0.01757802
vn 0.0009393211 0.9998451 0.01757566
vn 0.9927238 -0.003048918 0.1203748
vn -0.1204099 -0.01733359 0.992573
vn -0.9927239 0.003046979 -0.1203748
vn 0.1204098 0.01733375 -0.992573
vn 0.0001793905 0.9999986 -0.001697131
vn 0.9034103 0.4125625 0.1167997
vn 0.0731704 -0.7520556 -0.6550255
vn -0.9020339 -0.4155953 -0.1166856
vn -0.08751108 -0.7049401 0.7038475
vn -0.9745513 -0.2085042 -0.08231565
vn 0.9777461 0.1937763 0.08039545
vn -0.8571917 0.2798563 -0.4323227
vn 0.7473032 0.6565886 0.1021246
vn 0.8102004 0.4184228 0.4104847
vn -0.02705475 0.9994727 -0.01795377
vn -0.06385385 -0.732067 0.6782334
vn 0.8833554 -0.1919108 0.4276138
vn 0.9242638 -0.3690443 0.09768753
vn 0.8965607 0.3859292 -0.2173422
vn -0.8695489 -0.2051527 -0.4492184
vn -0.8970654 -0.4316067 -0.09481259
vn -0.9181153 0.2862392 0.2741013
vn -0.8125447 0.5761403 -0.08850731
vn 0.08080324 0.6605549 0.7464169
vn -0.02032296 0.9625688 -0.2702747
vn -0.03306029 0.281738 -0.9589217
vn -0.03235147 -0.6633874 -0.7475766
vn 0.06881331 -0.9602193 0.2706359
vn -0.9996359 -0.0005240333 0.02697907
vn -0.9343204 -0.09401331 0.3438121
vn 0.9126514 -0.1213302 0.3903159
vn -0.1161329 0.9708445 -0.2097003
vn 0.9984652 0.008669562 -0.05469884
vn -0.305938 -0.2833861 -0.9088973
vn 0.05375 -0.5951705 0.8017998
vn 0.9997541 0.009224151 0.02016767
vn -0.9993858 0.001871106 -0.03499287
vn -0.02272499 -0.3787157 -0.925234
vt -0.150888 0.1084902
vt -0.1437378 0.1154812
vt -0.1444369 0.1161962
vt -0.1515871 0.1092053
vt -0.1464886 -0.09545888
vt -0.1393935 -0.0952398
vt -0.1392529 -0.08811306
vt -0.1464114 -0.08833118
vt -0.1743905 0.002552917
vt -0.1661712 -0.003143036
vt -0.162111 0.002715877
vt -0.1703303 0.008411824
vt -0.02081613 -0.0978843
vt -0.01180439 -0.1022189
vt -0.008714591 -0.09579505
vt -0.01772634 -0.09146048
vt 0.1800718 -0.0612178
vt 0.1898544 -0.0591438
vt 0.1883759 -0.05217052
vt 0.1785934 -0.05424453
vt 0.1348764 -0.02274437
vt 0.1408035 -0.0191702
vt 0.1366043 -0.01341015
vt 0.1307531 -0.01692975
vt -0.03129925 0.1943031
vt -0.02523336 0.1863529
vt -0.02108756 0.1958773
vt 0.01806517 0.1576834
vt 0.02109618 0.1481538
vt 0.02882465 0.1559622
vt -0.2075239 -0.002030574
vt -0.2042273 0.004289613
vt -0.2051139 0.004752078
vt -0.2084105 -0.001568104
vt 0.1437389 0.1154807
vt 0.1508891 0.1084897
vt 0.1515882 0.1092047
vt 0.144438 0.1161957
vt 0.2042273 0.004289623
vt 0.2075239 -0.002030559
vt 0.2084105 -0.001568089
vt 0.2051139 0.004752088
vt -0.1832545 -0.0992826
vt -0.1866096 -0.08986224
vt -0.1881386 -0.08929218
vt -0.1840789 -0.1006908
vt -0.1472722 -0.01363302
vt -0.143073 -0.007872919
vt -0.1438037 -0.006413927
vt -0.1488848 -0.01338365
vt 0.0614158 0.07328194
vt 0.07035451 0.06879869
vt 0.07185306 0.06944446
vt 0.06103722 0.07486919
vt 0.1492659 -0.09207898
vt 0.1491977 -0.09920692
vt 0.1506404 -0.09996924
vt 0.150723 -0.09134443
vt -0.153038 0.1091858
vt -0.1443863 0.1176449
vt -0.1450853 0.1183599
vt -0.1537371 0.1099008
vt -0.2096433 -0.001769215
vt -0.2056544 0.005878204
vt -0.206541 0.006340674
vt -0.2105299 -0.001306745
vt 0.1443858 0.117645
vt 0.1530376 0.1091859
vt 0.1537367 0.1099009
vt 0.1450849 0.11836
vt 0.2056544 0.005878208
vt 0.2096433 -0.001769205
vt 0.2105299 -0.001306745
vt 0.206541 0.006340673
vt 0.01527886 -0.1028028
vt 0.02605805 -0.09730556
vt 0.02353077 -0.09692959
vt 0.01645855 -0.1005363
vt 0.02605746 -0.09730546
vt 0.02213892 -0.08962177
vt 0.02095923 -0.09188822
vt 0.02353018 -0.0969295
vt 0.02213948 -0.08962183
vt 0.0113603 -0.09511902
vt 0.01388757 -0.09549499
vt 0.02095979 -0.09188829
vt 0.01135968 -0.09511896
vt 0.01527822 -0.1028027
vt 0.01645791 -0.1005362
vt 0.01388696 -0.09549494
vt 0.1522488 0.1113556
vt 0.1465724 0.1169056
vt 0.1444751 0.1147606
vt 0.1501515 0.1092105
vt 0.209844 8.312532E-06
vt 0.2072269 0.005025781
vt 0.204567 0.00363838
vt 0.2071841 -0.001379094
vt -0.1465727 0.1169055
vt -0.1522491 0.1113555
vt -0.1501518 0.1092104
vt -0.1444754 0.1147604
vt -0.2072269 0.005025745
vt -0.209844 8.276206E-06
vt -0.2071841 -0.00137913
vt -0.204567 0.003638345
vt 0.01017877 -0.1019241
vt 0.01840129 -0.09196788
vt 0.007729542 -0.09682254
vt 0.2081089 0.0008746673
vt 0.2074724 -0.009153868
vt 0.2090223 -0.007011424
vt -0.1339124 -0.02343467
vt -0.1314231 -0.02432611
vt -0.1281596 -0.01970299
vt -0.1305865 -0.01885624
vt -0.2066511 -0.008781667
vt -0.2050908 -0.01082448
vt -0.2057951 -0.0008891462
vt 0.1501044 -0.08793885
vt 0.1474342 -0.09333907
vt 0.150235 -0.09359635
vt -0.1821354 0.07992569
vt -0.1757055 0.08972928
vt -0.1783036 0.08911936
vt 0.1758907 0.09437414
vt 0.1731157 0.09483233
vt 0.1800064 0.08520694
vt -0.1444781 0.05917821
vt -0.1515747 0.05900616
vt -0.1517847 0.05063026
vt 0.1601024 -0.1198743
vt 0.1647361 -0.1110126
vt 0.1569606 -0.112769
vt 0.200569 -0.03081195
vt 0.2049185 -0.02554826
vt 0.1989234 -0.02060724
vt 0.004623146 -0.09830154
vt 0.01545102 -0.09351748
vt 0.01295651 -0.08843794
vt 0.1431297 -0.08976015
vt 0.1404819 -0.08942695
vt 0.140309 -0.09508331
vt 0.1565478 0.04989413
vt 0.1663344 0.05194904
vt 0.1599266 0.0600598
vt 0.08149377 0.09654425
vt 0.09020848 0.09163978
vt 0.09083059 0.1023342
vt 0.1809579 0.09607551
vt 0.1740619 0.09800912
vt 0.1790686 0.08833122
vt -0.1901912 0.02084127
vt -0.1964211 0.02866356
vt -0.2007355 0.01827898
vt -0.1968037 -0.01752906
vt -0.1959805 -0.00756299
vt -0.2057594 -0.01226643
vt -0.003895812 0.1456832
vt -0.008295067 0.1403398
vt 0.002024546 0.1408518
vt -0.06224083 0.07360335
vt -0.07115098 0.06906362
vt -0.06438869 0.0655048
vt 0.1569692 -0.02900384
vt 0.1589092 -0.02852154
vt 0.1580639 -0.02693595
vt 0.1568477 -0.02852249
vt -0.0483021 -0.1056324
vt -0.04631523 -0.1058595
vt -0.04684798 -0.1027864
vt -0.04854102 -0.1038507
vt -0.1994984 -0.0286614
vt -0.1976297 -0.02937412
vt -0.1965182 -0.02645976
vt -0.1983869 -0.02574704
vt -0.155505 -0.02428121
vt -0.1535625 -0.02475641
vt -0.1527212 -0.02316784
vt -0.1539407 -0.02158288
vt 0.04853674 -0.09710167
vt 0.05052189 -0.0968658
vt 0.05046508 -0.09637262
vt 0.04876583 -0.09531951
vt -0.1129075 0.1362756
vt -0.1144355 0.137566
vt -0.1124943 0.1348613
vt 0.01768355 0.1839387
vt 0.01960616 0.1833878
vt 0.02104462 0.1847773
vt 0.02056048 0.1867178
vt 0.01863787 0.1872688
vt 0.01719941 0.1858793
vt 0.1659037 0.06080075
vt 0.1660966 0.06279142
vt 0.164469 0.06395379
vt 0.1626486 0.06312548
vt 0.1624558 0.06113479
vt 0.1640833 0.05997243
vt -0.04069665 -0.08755542
vt -0.04064872 -0.08705847
vt -0.04358698 -0.08780526
vt -0.04348338 -0.08829366
vt 0.1078791 0.1434388
vt 0.1063943 0.1420989
vt 0.106143 0.1405649
vt -0.1967864 -0.01771909
vt -0.1969486 -0.01819206
vt -0.195666 -0.01891744
vt 0.1673013 -0.0626121
vt 0.1721637 -0.06181913
vt 0.1720873 -0.061325
vt 0.1672131 -0.06211995
vt 0.1259249 0.1244031
vt 0.1306765 0.1257493
vt 0.1279521 0.1270796
vt -0.1295163 0.1242334
vt -0.1321188 0.122993
vt -0.1273675 0.1216905
vt -0.1819128 -0.00614253
vt -0.1816762 -0.005702048
vt -0.1830337 -0.004944676
o group770181043
g mesh770181043
usemtl mat24
f 4/4/1 3/3/1 2/2/1 1/1/1
f 7/8/2 6/7/2 5/6/2 2/5/2
f 6/12/3 9/11/3 8/10/3 5/9/3
f 9/16/4 11/15/4 10/14/4 8/13/4
f 11/20/5 13/19/5 12/18/5 10/17/5
f 13/24/6 14/23/6 1/22/6 12/21/6
f 15/27/7 10/26/7 12/25/7
f 16/30/8 9/29/8 6/28/8
f 3/34/9 17/33/9 7/32/9 2/31/9
f 17/38/10 18/37/10 14/36/10 7/35/10
f 18/42/11 4/41/11 1/40/11 14/39/11
f 20/46/12 19/45/12 3/44/12 4/43/12
f 19/50/13 21/49/13 17/48/13 3/47/13
f 21/54/14 22/53/14 18/52/14 17/51/14
f 22/58/15 20/57/15 4/56/15 18/55/15
f 24/62/16 23/61/16 19/60/16 20/59/16
f 23/66/17 25/65/17 21/64/17 19/63/17
f 25/70/18 26/69/18 22/68/18 21/67/18
f 26/74/19 24/73/19 20/72/19 22/71/19
f 28/78/20 27/77/20 23/76/20 24/75/20
f 27/82/21 29/81/21 25/80/21 23/79/21
f 29/86/22 30/85/22 26/84/22 25/83/22
f 30/90/23 28/89/23 24/88/23 26/87/23
f 32/94/24 31/93/24 27/92/24 28/91/24
f 31/98/25 33/97/25 29/96/25 27/95/25
f 33/102/26 34/101/26 30/100/26 29/99/26
f 34/106/27 32/105/27 28/104/27 30/103/27
f 37/109/28 36/108/28 35/107/28
f 32/112/29 35/111/29 31/110/29
f 34/116/30 37/115/30 35/114/30 32/113/30
f 33/119/31 37/118/31 34/117/31
f 31/122/32 38/121/32 33/120/32
f 33/125/33 36/124/33 37/123/33
f 35/128/34 38/127/34 31/126/34
f 15/131/35 2/130/35 5/129/35
f 16/134/36 7/133/36 14/132/36
f 16/137/37 14/136/37 13/135/37
f 36/140/38 38/139/38 35/138/38
f 38/143/39 36/142/39 33/141/39
f 16/146/40 13/145/40 11/144/40
f 16/149/41 11/148/41 9/147/41
f 16/152/42 6/151/42 7/150/42
f 15/155/43 5/154/43 8/153/43
f 15/158/44 8/157/44 10/156/44
f 15/161/45 12/160/45 1/159/45
f 15/164/46 1/163/46 2/162/46
o group1958900306
g mesh1958900306
usemtl mat13
f 42/168/47 41/167/47 40/166/47 39/165/47
f 41/172/48 44/171/48 43/170/48 40/169/48
f 44/176/49 46/175/49 45/174/49 43/173/49
f 46/180/50 48/179/50 47/178/50 45/177/50
f 48/184/51 50/183/51 49/182/51 47/181/51
f 51/187/52 39/186/52 49/185/52
f 39/193/53 40/192/53 43/191/53 45/190/53 47/189/53 49/188/53
f 50/199/54 48/198/54 46/197/54 44/196/54 41/195/54 42/194/54
f 53/203/55 52/202/55 42/201/55 39/200/55
f 54/206/56 50/205/56 42/204/56
f 51/209/57 49/208/57 50/207/57
f 54/213/58 52/212/58 53/211/58 51/210/58
f 42/216/59 52/215/59 54/214/59
f 51/219/60 53/218/60 39/217/60
f 50/222/61 54/221/61 51/220/61
